<svg xmlns="http://www.w3.org/2000/svg" viewBox="0 0 41 41" width="328" height="328" shape-rendering="crispEdges" role="img"><title>qr-manga</title><rect width="41" height="41" fill="#fff"/><path d="M4 4h7v1h-7zM12 4h2v1h-2zM15 4h1v1h-1zM18 4h1v1h-1zM20 4h1v1h-1zM23 4h1v1h-1zM25 4h1v1h-1zM27 4h1v1h-1zM30 4h7v1h-7zM4 5h1v1h-1zM10 5h1v1h-1zM12 5h2v1h-2zM15 5h1v1h-1zM17 5h1v1h-1zM20 5h1v1h-1zM26 5h3v1h-3zM30 5h1v1h-1zM36 5h1v1h-1zM4 6h1v1h-1zM6 6h3v1h-3zM10 6h1v1h-1zM17 6h2v1h-2zM20 6h1v1h-1zM22 6h2v1h-2zM26 6h2v1h-2zM30 6h1v1h-1zM32 6h3v1h-3zM36 6h1v1h-1zM4 7h1v1h-1zM6 7h3v1h-3zM10 7h1v1h-1zM12 7h3v1h-3zM17 7h2v1h-2zM21 7h1v1h-1zM26 7h1v1h-1zM28 7h1v1h-1zM30 7h1v1h-1zM32 7h3v1h-3zM36 7h1v1h-1zM4 8h1v1h-1zM6 8h3v1h-3zM10 8h1v1h-1zM14 8h2v1h-2zM18 8h4v1h-4zM23 8h1v1h-1zM28 8h1v1h-1zM30 8h1v1h-1zM32 8h3v1h-3zM36 8h1v1h-1zM4 9h1v1h-1zM10 9h1v1h-1zM15 9h4v1h-4zM20 9h1v1h-1zM23 9h1v1h-1zM28 9h1v1h-1zM30 9h1v1h-1zM36 9h1v1h-1zM4 10h7v1h-7zM12 10h1v1h-1zM14 10h1v1h-1zM16 10h1v1h-1zM18 10h1v1h-1zM20 10h1v1h-1zM22 10h1v1h-1zM24 10h1v1h-1zM26 10h1v1h-1zM28 10h1v1h-1zM30 10h7v1h-7zM12 11h2v1h-2zM15 11h2v1h-2zM18 11h4v1h-4zM24 11h1v1h-1zM26 11h2v1h-2zM4 12h1v1h-1zM6 12h2v1h-2zM9 12h3v1h-3zM13 12h1v1h-1zM18 12h4v1h-4zM23 12h3v1h-3zM28 12h1v1h-1zM30 12h1v1h-1zM33 12h1v1h-1zM35 12h2v1h-2zM5 13h1v1h-1zM11 13h3v1h-3zM15 13h2v1h-2zM20 13h4v1h-4zM27 13h1v1h-1zM30 13h2v1h-2zM33 13h2v1h-2zM36 13h1v1h-1zM9 14h2v1h-2zM12 14h2v1h-2zM18 14h1v1h-1zM20 14h2v1h-2zM24 14h4v1h-4zM30 14h4v1h-4zM36 14h1v1h-1zM6 15h3v1h-3zM11 15h1v1h-1zM14 15h6v1h-6zM22 15h1v1h-1zM28 15h1v1h-1zM31 15h1v1h-1zM33 15h1v1h-1zM35 15h2v1h-2zM7 16h1v1h-1zM10 16h1v1h-1zM13 16h4v1h-4zM19 16h1v1h-1zM21 16h1v1h-1zM23 16h2v1h-2zM26 16h1v1h-1zM28 16h2v1h-2zM31 16h3v1h-3zM4 17h2v1h-2zM7 17h1v1h-1zM9 17h1v1h-1zM12 17h4v1h-4zM18 17h3v1h-3zM23 17h1v1h-1zM25 17h2v1h-2zM28 17h1v1h-1zM31 17h1v1h-1zM34 17h2v1h-2zM5 18h3v1h-3zM10 18h2v1h-2zM13 18h1v1h-1zM15 18h1v1h-1zM22 18h5v1h-5zM30 18h2v1h-2zM34 18h1v1h-1zM4 19h1v1h-1zM7 19h1v1h-1zM9 19h1v1h-1zM15 19h5v1h-5zM23 19h3v1h-3zM29 19h3v1h-3zM33 19h2v1h-2zM4 20h4v1h-4zM9 20h4v1h-4zM15 20h2v1h-2zM22 20h2v1h-2zM25 20h2v1h-2zM28 20h3v1h-3zM32 20h3v1h-3zM4 21h2v1h-2zM7 21h1v1h-1zM9 21h1v1h-1zM12 21h1v1h-1zM14 21h1v1h-1zM17 21h1v1h-1zM19 21h1v1h-1zM21 21h1v1h-1zM24 21h1v1h-1zM27 21h4v1h-4zM32 21h2v1h-2zM35 21h2v1h-2zM8 22h1v1h-1zM10 22h4v1h-4zM15 22h2v1h-2zM19 22h1v1h-1zM21 22h1v1h-1zM24 22h1v1h-1zM28 22h5v1h-5zM34 22h2v1h-2zM5 23h1v1h-1zM7 23h1v1h-1zM14 23h2v1h-2zM19 23h4v1h-4zM28 23h1v1h-1zM30 23h1v1h-1zM32 23h1v1h-1zM35 23h2v1h-2zM4 24h2v1h-2zM7 24h4v1h-4zM12 24h2v1h-2zM15 24h2v1h-2zM18 24h6v1h-6zM25 24h1v1h-1zM27 24h1v1h-1zM33 24h2v1h-2zM4 25h2v1h-2zM20 25h1v1h-1zM22 25h4v1h-4zM27 25h1v1h-1zM30 25h1v1h-1zM36 25h1v1h-1zM7 26h1v1h-1zM10 26h2v1h-2zM14 26h1v1h-1zM16 26h3v1h-3zM20 26h1v1h-1zM26 26h4v1h-4zM31 26h2v1h-2zM35 26h2v1h-2zM5 27h5v1h-5zM11 27h2v1h-2zM17 27h2v1h-2zM22 27h1v1h-1zM24 27h1v1h-1zM28 27h1v1h-1zM31 27h1v1h-1zM33 27h1v1h-1zM35 27h2v1h-2zM4 28h1v1h-1zM6 28h1v1h-1zM10 28h1v1h-1zM13 28h4v1h-4zM18 28h1v1h-1zM21 28h1v1h-1zM23 28h1v1h-1zM26 28h1v1h-1zM28 28h5v1h-5zM35 28h2v1h-2zM12 29h5v1h-5zM18 29h2v1h-2zM23 29h1v1h-1zM27 29h2v1h-2zM32 29h2v1h-2zM35 29h1v1h-1zM4 30h7v1h-7zM12 30h2v1h-2zM18 30h1v1h-1zM20 30h4v1h-4zM26 30h3v1h-3zM30 30h1v1h-1zM32 30h1v1h-1zM4 31h1v1h-1zM10 31h1v1h-1zM12 31h3v1h-3zM17 31h4v1h-4zM22 31h2v1h-2zM25 31h4v1h-4zM32 31h3v1h-3zM4 32h1v1h-1zM6 32h3v1h-3zM10 32h1v1h-1zM14 32h3v1h-3zM25 32h1v1h-1zM27 32h6v1h-6zM34 32h1v1h-1zM4 33h1v1h-1zM6 33h3v1h-3zM10 33h1v1h-1zM12 33h3v1h-3zM18 33h2v1h-2zM21 33h2v1h-2zM26 33h3v1h-3zM31 33h1v1h-1zM33 33h2v1h-2zM36 33h1v1h-1zM4 34h1v1h-1zM6 34h3v1h-3zM10 34h1v1h-1zM12 34h1v1h-1zM14 34h2v1h-2zM18 34h3v1h-3zM24 34h2v1h-2zM27 34h1v1h-1zM30 34h2v1h-2zM33 34h1v1h-1zM4 35h1v1h-1zM10 35h1v1h-1zM14 35h5v1h-5zM20 35h4v1h-4zM26 35h1v1h-1zM28 35h1v1h-1zM30 35h4v1h-4zM36 35h1v1h-1zM4 36h7v1h-7zM12 36h1v1h-1zM17 36h1v1h-1zM19 36h4v1h-4zM24 36h2v1h-2zM27 36h1v1h-1zM30 36h1v1h-1zM32 36h1v1h-1zM34 36h1v1h-1z" fill="#000"/></svg>